<?xml version="1.0" encoding="UTF-8" standalone="no"?>
<svg width="42px" height="40px" viewBox="0 0 42 40" version="1.1" xmlns="http://www.w3.org/2000/svg" xmlns:xlink="http://www.w3.org/1999/xlink">
    <!-- Generator: Sketch 3.6.1 (26313) - http://www.bohemiancoding.com/sketch -->
    <title>Slice 1</title>
    <desc>Created with Sketch.</desc>
    <defs></defs>
    <g id="Page-1" stroke="none" stroke-width="1" fill="none" fill-rule="evenodd">
        <g id="logo" transform="translate(1.000000, 0.000000)">
            <path d="M13.2,39.08 C12.26,39.08 11.37,38.67 10.76,37.9 L1.57,26.5 C0.97,25.74 0.73,24.77 0.97,23.83 L4.25,9.6 C4.46,8.66 5.09,7.9 5.96,7.48 L19.24,1.13 C19.66,0.92 20.14,0.82 20.61,0.82 C21.08,0.82 21.55,0.92 21.97,1.13 L35.26,7.45 C36.12,7.87 36.76,8.63 36.97,9.57 L40.25,23.8 C40.46,24.75 40.25,25.72 39.64,26.48 L30.45,37.88 C29.85,38.61 28.96,39.06 28.01,39.06 L13.2,39.08 L13.2,39.08 Z" id="Shape" fill="#326DE6"></path>
            <path d="M38.82,25.92 L29.65,37.29 C29.25,37.81 28.6,38.12 27.92,38.12 L13.22,38.12 C12.54,38.12 11.89,37.81 11.48,37.29 L2.32,25.92 C1.9,25.38 1.73,24.69 1.87,24.02 L5.15,9.82 C5.31,9.14 5.75,8.59 6.35,8.31 L19.59,2 C19.9,1.87 20.26,1.81 20.58,1.81 C20.91,1.81 21.24,1.88 21.53,2.01 L34.78,8.31 C35.4,8.62 35.85,9.18 35.99,9.82 L39.26,24.02 C39.43,24.69 39.27,25.38 38.82,25.92 M40.98,23.65 L37.71,9.45 C37.42,8.25 36.62,7.25 35.51,6.72 L22.3,0.39 C21.76,0.14 21.16,0 20.58,0 C20,0 19.42,0.13 18.83,0.39 L5.58,6.72 C4.46,7.25 3.66,8.25 3.38,9.45 L0.11,23.65 C-0.18,24.86 0.11,26.11 0.89,27.09 L10.06,38.46 C10.82,39.41 11.96,39.96 13.2,39.96 L27.89,39.96 C29.13,39.96 30.27,39.41 31.02,38.46 L40.19,27.09 C40.98,26.13 41.27,24.88 40.98,23.65" id="Shape" fill="#FFFFFF"></path>
            <path d="M27.54,25.01 C26.88,26.06 26.02,26.9 25.02,27.55 L23.36,23.59 C23.29,23.28 23.42,22.94 23.73,22.78 C23.84,22.73 23.97,22.7 24.1,22.7 L28.3,23.41 C28.14,23.99 27.88,24.51 27.54,25.01 L27.54,25.01 Z M22.42,28.65 C21.82,28.78 21.21,28.86 20.58,28.86 C19.66,28.86 18.77,28.71 17.93,28.44 L20,24.7 C20.21,24.46 20.56,24.35 20.84,24.51 C20.98,24.59 21.08,24.7 21.16,24.8 L23.18,28.44 C22.94,28.52 22.68,28.57 22.42,28.65 L22.42,28.65 Z M12.84,23.44 L17.01,22.73 C17.35,22.7 17.67,22.94 17.75,23.28 C17.77,23.44 17.77,23.57 17.72,23.7 L16.12,27.55 C14.65,26.61 13.47,25.17 12.84,23.44 L12.84,23.44 Z M13.55,16.33 L16.67,19.11 C16.96,19.35 16.99,19.79 16.75,20.08 C16.67,20.19 16.56,20.27 16.43,20.29 L12.36,21.47 C12.21,19.69 12.6,17.88 13.55,16.33 L13.55,16.33 Z M18.72,12.61 C19.01,12.56 19.27,12.51 19.56,12.46 L19.32,16.65 C19.3,17.02 19.01,17.33 18.61,17.33 C18.51,17.33 18.38,17.3 18.3,17.25 L14.81,14.76 C15.88,13.69 17.22,12.95 18.72,12.61 L18.72,12.61 Z M26.33,14.76 L22.89,17.2 C22.6,17.38 22.21,17.33 21.97,17.04 C21.89,16.96 21.87,16.86 21.84,16.75 L21.61,12.48 C23.42,12.69 25.07,13.5 26.33,14.76 L26.33,14.76 Z M28.59,18.82 C28.8,19.72 28.85,20.61 28.77,21.47 L24.76,20.32 C24.39,20.21 24.18,19.85 24.26,19.48 C24.28,19.37 24.34,19.27 24.42,19.19 L27.59,16.33 C28.04,17.07 28.38,17.91 28.59,18.82 L28.59,18.82 Z M21.74,21.55 L20.58,22.1 L19.43,21.55 L19.14,20.32 L19.93,19.32 L21.21,19.32 L22,20.32 L21.74,21.55 L21.74,21.55 Z M33.89,22.83 C33.87,22.83 33.87,22.83 33.89,22.83 L33.87,22.83 C33.84,22.83 33.81,22.83 33.81,22.81 C33.76,22.81 33.71,22.78 33.66,22.78 C33.47,22.76 33.32,22.73 33.16,22.73 C33.08,22.73 33,22.73 32.9,22.7 L32.87,22.7 C32.32,22.65 31.87,22.6 31.45,22.47 C31.27,22.39 31.22,22.28 31.16,22.18 C31.16,22.15 31.14,22.15 31.14,22.13 L30.8,22.02 C30.95,20.82 30.9,19.56 30.61,18.33 C30.32,17.09 29.82,15.94 29.14,14.89 L29.4,14.66 L29.4,14.6 C29.4,14.47 29.43,14.34 29.53,14.21 C29.85,13.92 30.24,13.69 30.72,13.4 C30.8,13.35 30.87,13.32 30.95,13.27 C31.11,13.19 31.24,13.11 31.4,13.01 C31.43,12.98 31.48,12.95 31.53,12.9 C31.56,12.88 31.58,12.88 31.58,12.85 C31.95,12.53 32.03,12.01 31.77,11.67 C31.64,11.49 31.4,11.38 31.16,11.38 C30.95,11.38 30.77,11.46 30.59,11.59 L30.53,11.64 C30.48,11.67 30.45,11.72 30.4,11.75 C30.27,11.88 30.17,11.98 30.06,12.12 C30.01,12.17 29.96,12.25 29.88,12.3 C29.51,12.69 29.17,13.01 28.83,13.24 C28.75,13.29 28.67,13.32 28.59,13.32 C28.54,13.32 28.48,13.32 28.43,13.29 L28.38,13.29 L28.06,13.5 C27.72,13.14 27.36,12.82 26.99,12.51 C25.41,11.28 23.5,10.52 21.5,10.33 L21.47,9.99 L21.42,9.94 C21.34,9.86 21.24,9.78 21.21,9.6 C21.19,9.18 21.24,8.71 21.29,8.18 L21.29,8.16 C21.29,8.08 21.32,7.97 21.34,7.9 C21.37,7.74 21.4,7.58 21.42,7.4 L21.42,7.16 C21.42,6.69 21.05,6.3 20.61,6.3 C20.4,6.3 20.19,6.4 20.03,6.56 C19.87,6.72 19.79,6.93 19.79,7.16 L19.79,7.37 C19.79,7.55 19.82,7.71 19.87,7.87 C19.9,7.95 19.9,8.03 19.93,8.13 L19.93,8.16 C19.98,8.68 20.06,9.15 20,9.57 C19.98,9.76 19.87,9.83 19.79,9.91 C19.77,9.94 19.77,9.94 19.74,9.97 L19.72,10.31 C19.24,10.36 18.77,10.41 18.3,10.52 C16.28,10.96 14.49,11.98 13.1,13.45 L12.84,13.27 L12.78,13.27 C12.73,13.27 12.68,13.29 12.63,13.29 C12.55,13.29 12.47,13.27 12.39,13.22 C12.05,12.98 11.71,12.64 11.34,12.25 C11.29,12.19 11.24,12.12 11.16,12.06 C11.05,11.93 10.95,11.83 10.81,11.7 C10.79,11.67 10.74,11.64 10.68,11.59 C10.66,11.56 10.63,11.56 10.63,11.54 C10.47,11.41 10.26,11.33 10.05,11.33 C9.82,11.33 9.58,11.43 9.45,11.62 C9.19,11.96 9.27,12.48 9.63,12.8 C9.66,12.8 9.66,12.82 9.69,12.82 C9.74,12.85 9.76,12.9 9.82,12.93 C9.97,13.03 10.11,13.11 10.26,13.19 C10.34,13.22 10.42,13.27 10.5,13.32 C10.97,13.61 11.37,13.84 11.68,14.13 C11.81,14.26 11.81,14.4 11.81,14.53 L11.81,14.58 L12.08,14.81 C12.02,14.89 11.97,14.95 11.94,15.02 C10.63,17.09 10.13,19.53 10.47,21.94 L10.13,22.05 C10.13,22.07 10.11,22.07 10.11,22.1 C10.05,22.21 9.97,22.31 9.82,22.39 C9.42,22.52 8.95,22.57 8.4,22.62 L8.37,22.62 C8.29,22.62 8.19,22.62 8.11,22.65 C7.95,22.65 7.8,22.68 7.61,22.7 C7.56,22.7 7.51,22.73 7.45,22.73 C7.43,22.73 7.4,22.73 7.38,22.76 C6.9,22.86 6.61,23.31 6.69,23.73 C6.77,24.09 7.11,24.33 7.53,24.33 C7.61,24.33 7.66,24.33 7.74,24.3 C7.77,24.3 7.8,24.3 7.8,24.28 C7.85,24.28 7.9,24.25 7.95,24.25 C8.14,24.2 8.27,24.15 8.43,24.07 C8.5,24.04 8.58,23.99 8.66,23.96 L8.69,23.96 C9.19,23.78 9.63,23.62 10.05,23.57 L10.11,23.57 C10.26,23.57 10.37,23.65 10.45,23.7 C10.47,23.7 10.47,23.73 10.5,23.73 L10.87,23.67 C11.5,25.61 12.71,27.34 14.31,28.6 C14.67,28.89 15.04,29.12 15.44,29.36 L15.28,29.7 C15.28,29.73 15.3,29.73 15.3,29.75 C15.36,29.86 15.41,29.99 15.36,30.17 C15.2,30.57 14.96,30.96 14.67,31.4 L14.67,31.43 C14.62,31.51 14.57,31.56 14.52,31.64 C14.41,31.77 14.33,31.9 14.23,32.06 C14.2,32.09 14.18,32.14 14.15,32.19 C14.15,32.22 14.12,32.24 14.12,32.24 C13.91,32.69 14.07,33.19 14.46,33.37 C14.57,33.42 14.67,33.45 14.78,33.45 C15.09,33.45 15.41,33.24 15.57,32.95 C15.57,32.93 15.59,32.9 15.59,32.9 C15.62,32.85 15.65,32.79 15.67,32.77 C15.75,32.58 15.78,32.45 15.83,32.3 C15.86,32.22 15.88,32.14 15.91,32.06 C16.09,31.54 16.22,31.12 16.46,30.75 C16.56,30.59 16.7,30.57 16.8,30.51 C16.83,30.51 16.83,30.51 16.85,30.49 L17.04,30.15 C18.19,30.59 19.45,30.83 20.71,30.83 C21.47,30.83 22.26,30.75 23,30.57 C23.47,30.46 23.92,30.33 24.36,30.17 L24.52,30.46 C24.55,30.46 24.55,30.46 24.57,30.49 C24.7,30.51 24.81,30.57 24.91,30.72 C25.12,31.09 25.28,31.54 25.47,32.03 L25.47,32.06 C25.49,32.14 25.52,32.22 25.54,32.3 C25.6,32.45 25.62,32.61 25.7,32.77 L25.78,32.9 C25.78,32.93 25.81,32.95 25.81,32.95 C25.96,33.27 26.28,33.45 26.59,33.45 C26.7,33.45 26.8,33.42 26.91,33.37 C27.09,33.27 27.25,33.11 27.3,32.9 C27.36,32.69 27.36,32.45 27.25,32.24 C27.25,32.22 27.22,32.22 27.22,32.19 C27.2,32.14 27.17,32.09 27.15,32.06 C27.07,31.9 26.96,31.77 26.86,31.64 C26.8,31.56 26.75,31.51 26.7,31.43 L26.7,31.4 C26.41,30.96 26.15,30.57 26.02,30.17 C25.96,29.99 26.02,29.88 26.04,29.75 C26.04,29.73 26.07,29.73 26.07,29.7 L25.94,29.39 C27.33,28.57 28.51,27.42 29.4,26.01 C29.88,25.27 30.24,24.46 30.51,23.65 L30.82,23.7 C30.85,23.7 30.85,23.67 30.87,23.67 C30.98,23.62 31.06,23.54 31.22,23.54 L31.27,23.54 C31.69,23.59 32.13,23.75 32.63,23.94 L32.66,23.94 C32.74,23.96 32.82,24.01 32.9,24.04 C33.05,24.12 33.18,24.17 33.37,24.22 C33.42,24.22 33.47,24.25 33.53,24.25 C33.55,24.25 33.58,24.25 33.6,24.28 C33.68,24.3 33.74,24.3 33.81,24.3 C34.21,24.3 34.55,24.04 34.65,23.7 C34.65,23.38 34.37,22.97 33.89,22.83 L33.89,22.83 Z" id="Shape" fill="#FFFFFF"></path>
        </g>
    </g>
</svg>